<svg xmlns="http://www.w3.org/2000/svg" viewBox="0 0 88.88 132.89"><defs><style>.cls-1{fill:#db704b;}.cls-2{fill:#f4aa86;}.cls-3{fill:#d05245;}.cls-4{fill:#5e251d;}.cls-5{fill:#7a362c;}.cls-10,.cls-11,.cls-6,.cls-7{fill:none;stroke-miterlimit:10;}.cls-6{stroke:#672d28;}.cls-7{stroke:#884a3a;}.cls-10,.cls-11,.cls-7{stroke-linecap:round;}.cls-8{fill:#7c3b26;}.cls-9{opacity:0.67;}.cls-10,.cls-11{stroke:#883e2a;}.cls-11{stroke-dasharray:1.01 1.01;}.cls-12{fill:#f1f2f2;}.cls-13{fill:#64383a;}</style></defs><g id="Layer_2" data-name="Layer 2"><g id="Layer_2-2" data-name="Layer 2"><g id="person"><rect id="nect" class="cls-1" x="37.44" y="72.23" width="14" height="14.74"/><g id="ears"><g id="ear-r"><ellipse class="cls-2" cx="78.77" cy="51.82" rx="9.59" ry="5.44" transform="translate(-3.75 97.44) rotate(-62.28)"/><ellipse class="cls-3" cx="78.54" cy="52.26" rx="8.44" ry="4.69" transform="translate(-4.26 97.47) rotate(-62.28)"/></g><g id="ear-l"><ellipse class="cls-2" cx="10.11" cy="51.82" rx="5.44" ry="9.59" transform="translate(-22.95 10.65) rotate(-27.72)"/><ellipse class="cls-3" cx="10.35" cy="52.26" rx="4.69" ry="8.44" transform="translate(-23.13 10.81) rotate(-27.72)"/></g></g><circle class="cls-2" cx="44.44" cy="44.33" r="33.2"/><g id="hair"><path class="cls-4" d="M77,48.26S72.26,20.47,44.79,19.94,10.64,45.73,10.64,45.73s8.17-34.6,33.2-34.6S75.55,42.21,77,48.26Z"/><path class="cls-5" d="M54.34,17.71s-3.85-1.91-5.64-2.12S42.88,19.41,42,24.71s1.48,13.15,1.48,13.15L40.34,34l-.85,3.82H25.91l-2.75-3.18-2.34,4.24s-5.72-.63-7,1.28,0,8.06,0,8.06S5.55,43.58,3.43,31.92,25.91,1.16,33.55.1s21,6.37,21,6.37.21-2.12,4-2.34,18.24,7.43,21,11.67V22s1.7-1.69,3.18-.63,2.55,8.69,2.13,11L83,29.8s.42,6.58-.64,11-5.94,5.94-5.94,5.94l-1.91-8.06H62.4s0-17.61-2.76-19.94A5,5,0,0,0,54.34,17.71Z"/><path class="cls-6" d="M39.17,9.12s-8.06,8.48-6.89,14.74a15.45,15.45,0,0,1,.42-13.47"/><path class="cls-6" d="M61.41,11.7s6.46,6.22,6,11.24a13.06,13.06,0,0,0-1.16-10.62"/><path class="cls-6" d="M72.15,23.51S77,32.86,75.59,39.33a23.73,23.73,0,0,0,.92-14.1"/><path class="cls-6" d="M18.33,16.28s-3.57,6.41-2.77,11a16.6,16.6,0,0,1-.31-9.88"/><path class="cls-6" d="M10.22,25.39S8.61,37.28,11.88,45.28a23.74,23.74,0,0,1-6-13.16"/><path class="cls-6" d="M26.06,23.15s-2.83,8.12-1.71,14.21a17.05,17.05,0,0,1-2.24-10.1"/></g><g id="face"><rect class="cls-7" x="48.26" y="37.86" width="24.85" height="20.78" rx="5.48"/><rect class="cls-7" x="15.78" y="37.86" width="24.85" height="20.78" rx="5.48" transform="translate(56.4 96.5) rotate(-180)"/><ellipse class="cls-8" cx="44.44" cy="54.7" rx="0.69" ry="1.67"/><ellipse class="cls-8" cx="56.05" cy="47.2" rx="1.5" ry="5.2"/><g class="cls-9"><line class="cls-10" x1="54.3" y1="53.98" x2="54.8" y2="53.98"/><line class="cls-11" x1="55.81" y1="53.98" x2="57.33" y2="53.98"/><line class="cls-10" x1="57.83" y1="53.98" x2="58.33" y2="53.98"/></g><ellipse class="cls-8" cx="32.83" cy="47.2" rx="1.5" ry="5.2"/><g class="cls-9"><line class="cls-10" x1="34.58" y1="53.98" x2="34.08" y2="53.98"/><line class="cls-11" x1="33.07" y1="53.98" x2="31.55" y2="53.98"/><line class="cls-10" x1="31.05" y1="53.98" x2="30.55" y2="53.98"/></g><path class="cls-7" d="M37,61.3s4.77,1.49,7,1.49,7-1.49,7-1.49"/><line class="cls-7" x1="40.62" y1="44.09" x2="48.26" y2="44.09"/></g><rect class="cls-12" x="35.9" y="82.09" width="17.08" height="50.79"/><path class="cls-13" d="M51.44,79.6S65.23,88,68.2,90.15,81.46,103.3,82.41,106.7s6.47,17.39,6.47,17.39-14.74,8.8-37.44,8.8Z"/><path class="cls-13" d="M37.44,79.6S23.65,88,20.68,90.15,7.42,103.3,6.47,106.7,0,124.09,0,124.09s14.74,8.8,37.44,8.8Z"/><ellipse class="cls-1" cx="44.44" cy="82.09" rx="7" ry="3.39"/></g></g></g></svg>